<svg xmlns="http://www.w3.org/2000/svg" style="overflow: visible;" data-svgdocument="" id="_OKu5rQKxmEKX55j5Dh1Oy" class="fl-svgdocument" x="0" y="0" overflow="hidden" data-bbox="48 173.82342529296875 390.6394002469781 164.35315922468817" viewBox="10.15 158.83 468.23 172.85"><path id="_mu5bQlKC4LKavwnprMYXc" fill="#6B7AFF" transform="matrix(0.9297570586204529, 0, 0, 0.9297570586204529, 10.153417015341716, 158.8276093933872)" data-type="circle" data-cx="88.385" data-cy="88.385" data-r="88.385" d="M88.385,88.385m-88.385,0a88.385,88.385 0 1, 0 176.77,0a88.385,88.385 0 1, 0 -176.77,0" data-uid="o_fa158imid_7"/><g id="_B-CDpa4F8O6aURBIQ_iGF" transform="matrix(0.8375704884529114, 0, 0, 0.8375704884529114, 10.153409385947185, 26.586222979812987)" fill="#ffffff" data-uid="o_fa158imid_8"><path id="_-JEcpa4bFxx-G22s1NS0x" d="M48 4c24.256 0 44 19.744 44 44s-19.744 44-44 44-44-19.744-44-44 19.744-44 44-44zM48 0c-26.508 0-48 21.492-48 48s21.492 48 48 48 48-21.492 48-48-21.492-48-48-48v0z" fill="#ffffff" transform="matrix(1.8671562671661377, 0, 0, 1.8671562671661377, 8.235543251037598, 165.72377014160156)" data-uid="o_fa158imid_9"/><path id="_tRqw_Ko7S-ms1wPVFNHqj" d="M48 66c-9.92 0-18-8.080-18-18s8.080-18 18-18 18 8.080 18 18-8.080 18-18 18zM48 34c-7.72 0-14 6.28-14 14s6.28 14 14 14 14-6.28 14-14-6.28-14-14-14z" fill="#ffffff" transform="matrix(1.8282570838928223, 0, 0, 1.8282570838928223, 10.008573532104492, 167.49728393554688)" data-uid="o_fa158imid_10"/><path id="_0l5i70f76p9VpgC30kzlf" d="M15.348 82.436c-0.74 0-1.448-0.416-1.792-1.12-0.484-0.992-0.080-2.192 0.916-2.676l31.532-15.424c0.98-0.48 2.188-0.080 2.676 0.916 0.484 0.992 0.080 2.192-0.916 2.676l-31.532 15.416c-0.288 0.148-0.588 0.212-0.884 0.212z" fill="#ffffff" transform="matrix(1.8671562671661377, 0, 0, 1.8671562671661377, 14.513153076171875, 163.76806640625)" data-uid="o_fa158imid_11"/><path id="_n0R81xrM-N5H-DDahq277" d="M53.172 95.632c-0.132 0-0.264-0.012-0.4-0.040-1.084-0.228-1.784-1.272-1.576-2.364l6.964-34.456c0.228-1.084 1.296-1.772 2.356-1.576 1.084 0.228 1.784 1.272 1.576 2.356l-6.964 34.464c-0.192 0.96-1.028 1.616-1.956 1.616z" fill="#ffffff" transform="matrix(1.8671562671661377, 0, 0, 1.8671562671661377, 10.940382957458496, 160.4227294921875)" data-uid="o_fa158imid_12"/><path id="_WafwNEKYDu6ihmew9wMK4" d="M87.008 73.984c-0.564 0-1.108-0.236-1.508-0.688l-23.008-26.416c-0.728-0.832-0.636-2.084 0.196-2.82 0.836-0.732 2.092-0.636 2.82 0.204l23.008 26.416c0.728 0.832 0.636 2.092-0.196 2.82-0.384 0.324-0.848 0.484-1.312 0.484z" fill="#ffffff" transform="matrix(1.8671562671661377, 0, 0, 1.8671562671661377, 6.304329872131348, 160.6673583984375)" data-uid="o_fa158imid_13"/><path id="_jNC-VE2NpzzYjjojIEPJd" d="M55.292 35.756c-1.052 0-1.928-0.816-1.996-1.884-0.072-1.092 0.764-2.052 1.872-2.116l35.424-2.232c1.232-0.152 2.060 0.768 2.124 1.872 0.072 1.1-0.772 2.060-1.88 2.12l-35.424 2.232c-0.036 0.008-0.080 0.008-0.12 0.008z" fill="#ffffff" transform="matrix(1.8671562671661377, 0, 0, 1.8671562671661377, 3.627044677734375, 164.7776336669922)" data-uid="o_fa158imid_14"/><path id="_13tHl6q_e8MpI4hHrJ62p" d="M40 36.148c-0.392 0-0.772-0.108-1.108-0.34-0.916-0.616-1.164-1.86-0.552-2.772l20.252-30.148c0.612-0.916 1.872-1.152 2.764-0.548 0.916 0.616 1.164 1.86 0.556 2.772l-20.252 30.148c-0.388 0.58-1.020 0.888-1.66 0.888z" fill="#ffffff" transform="matrix(1.8671562671661377, 0, 0, 1.8671562671661377, 8.228992462158203, 165.71177673339844)" data-uid="o_fa158imid_15"/><path id="_JEqjnA_VS9C9-c-IrHxjA" d="M32.32 46.816c-0.868 0-1.668-0.58-1.92-1.444l-9.792-33.9c-0.3-1.064 0.308-2.168 1.372-2.476 1.048-0.308 2.168 0.304 2.476 1.368l9.784 33.908c0.304 1.064-0.304 2.168-1.368 2.472-0.18 0.048-0.368 0.072-0.552 0.072z" fill="#ffffff" transform="matrix(1.8671562671661377, 0, 0, 1.8671562671661377, 8.177715301513672, 168.94680786132812)" data-uid="o_fa158imid_16"/><path id="_bQVfZMh8hJnlB7K5E5A6A" d="M36.208 60.804c-0.244 0-0.488-0.044-0.732-0.136l-33.816-13.24c-1.028-0.412-1.536-1.572-1.132-2.592s1.552-1.54 2.588-1.132l33.82 13.248c1.028 0.404 1.536 1.564 1.132 2.584-0.312 0.788-1.064 1.268-1.86 1.268z" fill="#ffffff" transform="matrix(1.8671562671661377, 0, 0, 1.8671562671661377, 8.442461013793945, 165.60543823242188)" data-uid="o_fa158imid_17"/></g><path id="_G76eKqyQenIjJtVhyN_go" fill="rgba(255, 255, 255, 1)" transform="matrix(0.6584528684616089, 0, 0, 0.6584528684616089, 204.84842145054438, 229.28124310862665)" text="AI" text-anchor="start" font-size="135" letter-spacing="0" side="left" offset="0" dx="0" dy="0" space="preserve" href="" font-family="Yellowtail" font-scale="contain" x="0" y="0" data-fl-textpath="" data-uid="o_fa158imid_19" d="M 92.09-92.48L 92.09-92.48Q 94.13-97.03  94.99-97.03L 94.99-97.03L 95.32-97.03Q 96.31-97.03  99.34-94.92Q 102.37-92.81  102.37-90.97L 102.37-90.97Q 102.37-88.4  85.5-51.15Q 68.62-13.91  66.15-9.39Q 63.68-4.88  62.75-3.36Q 61.83-1.85  60.25 0L 60.25 0Q 57.41 3.49  53.2 3.49L 53.2 3.49Q 51.48 3.49  50.16 3.92Q 48.85 4.35  48.58 4.35L 48.58 4.35Q 46.47 4.35  46.47 3.36L 46.47 3.36Q 46.47 3.16  47.03 1.75Q 47.59 0.33  62.09-30.26L 62.09-30.26Q 46.6-30.85  34.87-31.18L 34.87-31.18Q 23.6-17.01  14.44-1.52L 14.44-1.52Q 13.32 0.66  12.33 1.55Q 11.34 2.44  9.62 2.44Q 7.91 2.44  5.93 0.69Q 3.96-1.05  3.96-3.36L 3.96-3.36Q 3.96-9.95  20.96-31.57L 20.96-31.57Q 12.99-31.57  10.84-31.18Q 8.7-30.78  8.11-30.78L 8.11-30.78Q 6.33-30.78  6.33-33.78Q 6.33-36.78  9.85-39.06Q 13.38-41.33  19.31-41.33L 19.31-41.33Q 19.78-41.33  20.96-41.4L 20.96-41.4Q 25.05-41.59  29.33-41.73L 29.33-41.73Q 43.7-58.6  59.39-73.04Q 75.08-87.47  86.55-93.27L 86.55-93.27Q 88.4-94.2  89.48-94.16Q 90.57-94.13  92.09-92.48ZM 87.47-83.19L 87.47-83.19Q 63.41-64.93  43.51-41.73L 43.51-41.73Q 55.17-41.46  67.1-40.74L 67.1-40.74Q 79.1-65.98  87.47-83.19ZM 141.329-95.78L 146.599-95.58L 149.699-95.71Q 151.409-95.71  151.409-94.39L 151.409-94.39Q 151.409-94  151.279-93.8L 151.279-93.8Q 119.769-47.46  92.419-2.97L 92.419-2.97Q 90.969-0.59  89.849-0.26L 89.849-0.26Q 89.779-0.26  89.189 0L 89.189 0Q 85.889 1.25  84.569 1.25Q 83.259 1.25  83.119 1.32L 83.119 1.32Q 82.529 1.98  81.709 1.98Q 80.879 1.98  80.619 1.94Q 80.349 1.91 79.099 1.42Q 77.849 0.92 77.849 0.66L 77.849 0.66Q 77.849-2.57 78.109-3.23L 78.109-3.23Q 79.499-7.91  93.339-29.63Q 107.179-51.35  121.519-72.02Q 135.859-92.68  138.889-95.05L 138.889-95.05Q 139.809-95.78  141.329-95.78L 141.329-95.78Z" font-style="normal" font-weight="400"/><path id="_G76eKqyQenIjJtVhyN_go" fill="rgba(255, 255, 255, 1)" transform="matrix(0.6584528684616089, 0, 0, 0.6584528684616089, 204.84842145054435, 304.8938700287857)" text="Prompts" text-anchor="start" font-size="135" letter-spacing="0" side="left" offset="0" dx="0" dy="0" space="preserve" href="" font-family="Yellowtail" font-scale="contain" x="0" y="0" data-fl-textpath="" font-style="normal" font-weight="400" data-uid="o_fa158imid_21" d="M 40.67-70.73L 40.67-70.73Q 38.5-69.15  38.5-67.2Q 38.5-65.26  41.4-65.26L 41.4-65.26Q 42.65-65.26  44.63-65.98L 44.63-65.98L 44.69-65.98Q 45.02-65.98  45.02-64.63Q 45.02-63.28  44.76-63.02L 44.76-63.02Q 37.97-58.21  33.29-58.21Q 28.61-58.21  26.5-60.84Q 24.39-63.48  24.39-67.73Q 24.39-71.98  29.07-76.76Q 33.75-81.54  41.66-85.59Q 49.57-89.65  61.27-92.29Q 72.97-94.92  87.57-94.92Q 102.17-94.92  111.99-89.22Q 121.82-83.52  121.82-76.23Q 121.82-68.95  116.71-61.44Q 111.6-53.92  103.92-48.35Q 96.24-42.78  86.88-39.22Q 77.52-35.66  70.14-35.66Q 62.75-35.66  58.67-41.59L 58.67-41.59Q 48.65-25.84  45.09-20.07Q 41.53-14.3  39.06-10.38Q 36.58-6.46  35.23-4.22Q 33.88-1.98  33.82-1.91L 33.82-1.91Q 32.43-0.4  30.85-0.4L 30.85-0.4L 27.62 0.2L 26.04 0.07L 24.92 0.07Q 21.03 0.07  21.03-2.37L 21.03-2.37Q 21.03-5.47  34.01-25.71Q 47-45.94  58.5-62.42Q 70-78.9  71.92-80.95Q 73.83-82.99  75.31-83.35Q 76.79-83.72  80.09-83.72L 80.09-83.72L 83.39-83.72Q 84.24-83.72  84.24-82.36Q 84.24-81.01  83.91-80.49L 83.91-80.49Q 78.11-72.38  62.95-48.45L 62.95-48.45Q 63.48-47.4  64.7-47.13Q 65.92-46.87  67.3-46.87L 67.3-46.87L 69.21-46.87Q 75.28-46.87  82.33-49.8Q 89.38-52.73  94.72-56.82Q 100.06-60.91  103.66-65.36Q 107.25-69.81  107.25-72.97Q 107.25-76.14  105.27-78.64Q 103.29-81.15  99.87-82.6L 99.87-82.6Q 93.14-85.43  83.55-85.43Q 73.96-85.43  60.41-80.45Q 46.87-75.48  40.67-70.73ZM 125.837-40.08L 123.067-35.93Q 138.627-53.59  149.567-53.59L 149.567-53.59Q 152.267-53.59  154.017-51.98Q 155.767-50.36  155.767-47.79Q 155.767-45.22  152.107-39.19Q 148.447-33.16  145.347-29L 145.347-29Q 143.697-26.89  141.627-26.89Q 139.547-26.89  138.397-28.41Q 137.237-29.93  137.237-31.97L 137.237-31.97Q 137.237-36.52  142.117-42.25L 142.117-42.25L 141.987-42.39Q 139.817-42.19  131.207-33.82Q 122.607-25.44  116.577-18.82Q 110.547-12.19  103.487-2.7L 103.487-2.7Q 101.447 0.13  100.027 0.13Q 98.617 0.13 96.277-0.76Q 93.937-1.65 93.437-2.04Q 92.947-2.44 92.947-3.36Q 92.947-4.28 93.467-5.5Q 93.997-6.72 95.417-8.96Q 96.837-11.21  99.697-16.22Q 102.567-21.23  108.637-31.38Q 114.697-41.53  115.887-43.64L 115.887-43.64Q 118.387-47.99  119.967-49.97L 119.967-49.97Q 122.937-53.72  129.987-53.72L 129.987-53.72Q 131.577-53.72  131.577-51.75L 131.577-51.75Q 131.577-48.65  125.837-40.08L 125.837-40.08ZM 193.408-50.23Q 195.378-50.23  197.458-48.45Q 199.538-46.67  199.538-43.01Q 199.538-39.35  196.958-33.52Q 194.388-27.69  189.908-21.65Q 185.428-15.62  180.058-10.32Q 174.678-5.01  168.458-1.61Q 162.228 1.78  157.148 1.78Q 152.068 1.78  149.008-1.42Q 145.938-4.61  145.938-10.32Q 145.938-16.02  148.748-22.94Q 151.548-29.86  155.958-35.17Q 160.378-40.47  165.518-44.69L 165.518-44.69Q 176.268-53.33  184.368-53.33L 184.368-53.33Q 187.998-53.33  189.848-51.55L 189.848-51.55Q 190.498-50.95  190.498-50.49L 190.498-50.49L 190.498-50.1Q 191.428-50.23  193.408-50.23ZM 186.748-41.46L 186.748-41.46L 186.288-41.46Q 183.978-41.46  183.978-44.82L 183.978-44.82Q 179.168-43.24  173.888-39.29Q 168.618-35.33  164.468-29.93L 164.468-29.93Q 156.028-19.12  155.898-11.67L 155.898-11.67Q 155.898-7.98  158.598-7.98Q 161.298-7.98  166.638-11.54Q 171.978-15.1  177.218-21.69Q 182.458-28.28  185.068-33.12Q 187.668-37.97  187.668-39.72Q 187.668-41.46  186.748-41.46ZM 198.087 0.4L 198.087 0.4L 194.857 0.26L 193.667 0.26Q 193.007 0.07 192.247-0.53Q 191.497-1.12 191.097-1.38Q 190.697-1.65 190.697-2.34Q 190.697-3.03 191.227-4.75L 191.227-4.75Q 204.087-33.02  216.077-49.97L 216.077-49.97Q 217.397-51.81  220.327-52.77Q 223.267-53.72  226.037-53.72L 226.037-53.72Q 227.677-53.72  227.677-51.15L 227.677-51.15Q 227.677-50.43  227.157-49.21Q 226.627-47.99  224.517-45.22Q 222.407-42.45  219.507-38.89Q 216.607-35.33  216.207-34.8L 216.207-34.8Q 225.247-44.17  232.527-48.75Q 239.807-53.33  243.077-53.33Q 246.337-53.33  248.087-51.45Q 249.827-49.57  249.827-47.43Q 249.827-45.29  249.537-43.87Q 249.237-42.45  248.447-40.9Q 247.657-39.35  247.097-38.27Q 246.537-37.18  245.217-35.43Q 243.897-33.68  243.407-33.02Q 242.907-32.37  241.357-30.52Q 239.807-28.67  239.677-28.48L 239.677-28.48Q 241.527-30.32  244.817-33.95Q 248.117-37.57  250.387-40.01Q 252.667-42.45  256.087-45.52Q 259.517-48.58  262.487-50.49L 262.487-50.49Q 269.607-54.98  276.917-54.98L 276.917-54.98Q 279.427-54.98  281.137-53.39Q 282.857-51.81  282.857-49.6Q 282.857-47.4  277.517-39.06Q 272.177-30.72  266.867-22.31Q 261.567-13.91  261.567-11.73L 261.567-11.73Q 261.567-8.7  262.687-8.14Q 263.807-7.58  265.387-7.71Q 266.967-7.84  269.837-9.76Q 272.707-11.67  274.947-13.71L 274.947-13.71Q 278.567-17.01  281.667-20.1L 281.667-20.1Q 282.327-20.7  283.117-20.7L 283.117-20.7Q 284.367-20.7  284.637-18.79Q 284.897-16.88  284.897-14.83Q 284.897-12.79  284.507-12L 284.507-12Q 282.587-8.31  276.067-2.97Q 269.537 2.37  263.537 2.37L 263.537 2.37Q 262.817 2.37  262.487 2.31L 262.487 2.31Q 255.697 1.65  253.097-1.42Q 250.487-4.48  250.487-8.7Q 250.487-12.92  253.357-18.92Q 256.227-24.92  259.647-29.79Q 263.077-34.67  265.947-38.59Q 268.817-42.52  268.817-42.85Q 268.817-43.18  268.287-43.18L 268.287-43.18Q 266.247-43.18  259.187-36.58L 259.187-36.58Q 247.127-25.31  238.357-14.83L 238.357-14.83Q 236.057-12.06  227.417-0.79L 227.417-0.79Q 226.427 0.53  224.287 0.53Q 222.147 0.53  219.837-0.3Q 217.527-1.12  217.527-2.44L 217.527-2.44Q 217.527-3.1  228.007-20.93Q 238.487-38.76  238.487-40.37Q 238.487-41.99  236.547-41.99Q 234.607-41.99  228.537-36.19L 228.537-36.19Q 211.857-20.24  202.697-4.48L 202.697-4.48Q 202.107-3.56  200.387-1.58Q 198.677 0.4  198.087 0.4ZM 315.61-70.2L 316.87-70.14L 318.05-70.27Q 319.04-70.27  319.64-68.55Q 320.23-66.84  320.23-66.25Q 320.23-65.65  318.91-64.01L 318.91-64.01L 300.12-35.4Q 310.01-45.29  320.23-49.83L 320.23-49.83Q 324.18-51.55  327.38-51.55Q 330.58-51.55  332.52-49.47Q 334.47-47.4  334.47-44.3Q 334.47-41.2  332.75-36.65Q 331.04-32.1  328.11-26.96Q 325.17-21.82  320.99-16.61Q 316.8-11.4  312.22-7.19Q 307.64-2.97  302.23-0.33Q 296.83 2.31  292.74 2.31L 292.74 2.31Q 284.5 2.31  284.5-5.27L 284.5-5.27Q 276.79 6.53 266.7 22.68Q 256.62 38.83 255.89 39.75Q 255.17 40.67 254.67 40.67Q 254.18 40.67 253.16 40.08Q 252.14 39.48 251.02 38.1Q 249.89 36.72 249.86 34.08Q 249.83 31.44 251.41 28.74L 251.41 28.74Q 260.31 13.91  285.72-27.06Q 311.13-68.03  313.24-69.41L 313.24-69.41Q 314.43-70.2  315.61-70.2L 315.61-70.2ZM 322.67-39.81L 322.67-39.81Q 322.67-41.2  321.35-41.2L 321.35-41.2Q 317.79-41.2  306.29-30.26Q 294.78-19.31  288-10.28L 288-10.28Q 289.71-8.17  293.07-8.17Q 296.43-8.17  301.77-11.8Q 307.11-15.42  311.66-20.4Q 316.21-25.38  319.44-30.85Q 322.67-36.32  322.67-39.81ZM 375.271-84.51L 378.371-84.9L 381.071-84.24Q 381.661-84.24  382.131-83.65Q 382.591-83.06  382.591-82.53Q 382.591-82  381.201-79.69Q 379.821-77.39  377.941-74.45Q 376.061-71.52  375.931-71.26L 375.931-71.26Q 381.071-71.65  383.211-71.65Q 385.361-71.65  386.151-71.36Q 386.941-71.06  387.961-69.71Q 388.981-68.36  389.841-67.66Q 390.701-66.97  390.701-65.59Q 390.701-64.2  389.011-63.25Q 387.331-62.29  385.421-62.09L 385.421-62.09Q 370.131-60.58  368.551-60.51L 368.551-60.51Q 363.211-52.34  353.621-35.04Q 344.031-17.73  343.431-13.38L 343.431-13.38Q 343.171-11.4  343.171-10.15L 343.171-10.15Q 343.171-7.58  345.871-7.58Q 348.571-7.58  351.871-9.66Q 355.171-11.73  357.931-14.17L 357.931-14.17Q 365.321-20.76  365.841-20.76L 365.841-20.76Q 367.561-20.76  367.561-14.83L 367.561-14.83Q 367.561-11.6  364.591-9.03L 364.591-9.03Q 357.931-3.3  353.391-0.4Q 348.841 2.5  344.291 2.5L 344.291 2.5Q 343.301 2.5  342.441 2.31L 342.441 2.31Q 337.171 1.32  334.701-1.55Q 332.231-4.42  332.261-9.29Q 332.291-14.17  335.161-21.13Q 338.031-28.08  342.381-35.93L 342.381-35.93Q 349.501-48.71  356.621-59.92L 356.621-59.92L 354.111-59.59Q 346.461-58.73  345.211-58.73L 345.211-58.73L 344.621-58.73Q 342.711-58.73  340.931-59.49Q 339.151-60.25  339.151-61.37Q 339.151-62.49  340.101-63.54Q 341.061-64.6  341.261-65.19L 341.261-65.19Q 341.721-66.64  344.721-68.42Q 347.721-70.2  349.231-70.3Q 350.751-70.4  352.171-70.47Q 353.581-70.53  355.331-70.6Q 357.081-70.66  358.001-70.73L 358.001-70.73L 363.931-70.99Q 369.471-79.3  371.551-81.67Q 373.621-84.05  373.951-84.28Q 374.281-84.51  375.271-84.51L 375.271-84.51ZM 369.275-13.18L 369.275-13.18L 369.205-12.13Q 369.205-10.48  370.455-9.29Q 371.715-8.11  372.765-8.11L 372.765-8.11Q 380.675-8.11  386.775-10.48Q 392.875-12.85  392.875-15.23L 392.875-15.23Q 392.875-16.35  390.665-17.17Q 388.455-18  383.215-19.22Q 377.975-20.43  375.605-21.13Q 373.225-21.82  371.845-22.41Q 370.455-23.01  369.005-24.06L 369.005-24.06Q 365.915-26.24  365.915-30.55Q 365.915-34.87  369.105-39.12Q 372.305-43.37  377.115-46.41Q 381.925-49.44  387.465-51.75L 387.465-51.75Q 398.405-56.29  405.855-56.29L 405.855-56.29Q 413.175-56.29  414.885-53.13L 414.885-53.13Q 415.415-52.01  415.415-50.63L 415.415-50.63L 415.415-50.16Q 415.415-46.67  413.935-44.69Q 412.445-42.71  409.255-41.13Q 406.055-39.55  404.175-39.55Q 402.295-39.55  401.805-39.81Q 401.305-40.08  400.975-40.51Q 400.645-40.94  400.155-41.13Q 399.665-41.33  399.665-42.12Q 399.665-42.91  400.325-43.74Q 400.975-44.56  401.245-45.48L 401.245-45.48Q 396.895-45.29  392.145-43.47Q 387.405-41.66  384.005-39.42Q 380.615-37.18  378.365-35.13Q 376.125-33.09  376.125-32.14Q 376.125-31.18  379.165-30.59L 379.165-30.59Q 392.805-27.88  397.095-25.91Q 401.375-23.93  403.025-21.42Q 404.675-18.92  404.675-16.88L 404.675-16.88Q 404.675-12.66  401.305-8.9Q 397.945-5.14  393.005-2.77L 393.005-2.77Q 382.395 2.44  374.515 2.44Q 366.635 2.44  363.635 0.03Q 360.635-2.37  360.635-5.67Q 360.635-8.96  362.315-11.77Q 363.995-14.57  366.635-14.57Q 369.275-14.57  369.275-13.18Z"/></svg>