<svg xmlns="http://www.w3.org/2000/svg" width="512" height="512" viewBox="0 0 512 512" style="overflow: visible;" data-svgdocument="" id="_OKu5rQKxmEKX55j5Dh1Oy" class="fl-svgdocument" x="0" y="0" overflow="hidden"><path id="_mu5bQlKC4LKavwnprMYXc" fill="rgba(0,0,0,0.87)" transform="matrix(0.9297570586204529, 0, 0, 0.9297570586204529, 173.82342529296875, 173.82342529296875)" data-type="circle" data-cx="88.385" data-cy="88.385" data-r="88.385" d="M88.385,88.385m-88.385,0a88.385,88.385 0 1, 0 176.77,0a88.385,88.385 0 1, 0 -176.77,0" data-uid="o_fa0km650i_7"/><g id="_B-CDpa4F8O6aURBIQ_iGF" transform="matrix(0.8375702500343323, 0, 0, 0.8375702500343323, 173.8234100341797, 41.582035064697266)" fill="#ffffff" data-uid="o_fa0km650i_8"><path id="_-JEcpa4bFxx-G22s1NS0x" d="M48 4c24.256 0 44 19.744 44 44s-19.744 44-44 44-44-19.744-44-44 19.744-44 44-44zM48 0c-26.508 0-48 21.492-48 48s21.492 48 48 48 48-21.492 48-48-21.492-48-48-48v0z" fill="#ffffff" transform="matrix(1.8671562671661377, 0, 0, 1.8671562671661377, 8.235543251037598, 165.72377014160156)" data-uid="o_fa0km650i_9"/><path id="_tRqw_Ko7S-ms1wPVFNHqj" d="M48 66c-9.92 0-18-8.080-18-18s8.080-18 18-18 18 8.080 18 18-8.080 18-18 18zM48 34c-7.72 0-14 6.28-14 14s6.28 14 14 14 14-6.28 14-14-6.28-14-14-14z" fill="#ffffff" transform="matrix(1.8282570838928223, 0, 0, 1.8282570838928223, 10.008573532104492, 167.49728393554688)" data-uid="o_fa0km650i_10"/><path id="_0l5i70f76p9VpgC30kzlf" d="M15.348 82.436c-0.74 0-1.448-0.416-1.792-1.12-0.484-0.992-0.080-2.192 0.916-2.676l31.532-15.424c0.98-0.48 2.188-0.080 2.676 0.916 0.484 0.992 0.080 2.192-0.916 2.676l-31.532 15.416c-0.288 0.148-0.588 0.212-0.884 0.212z" fill="#ffffff" transform="matrix(1.8671562671661377, 0, 0, 1.8671562671661377, 14.513153076171875, 163.76806640625)" data-uid="o_fa0km650i_11"/><path id="_n0R81xrM-N5H-DDahq277" d="M53.172 95.632c-0.132 0-0.264-0.012-0.4-0.040-1.084-0.228-1.784-1.272-1.576-2.364l6.964-34.456c0.228-1.084 1.296-1.772 2.356-1.576 1.084 0.228 1.784 1.272 1.576 2.356l-6.964 34.464c-0.192 0.96-1.028 1.616-1.956 1.616z" fill="#ffffff" transform="matrix(1.8671562671661377, 0, 0, 1.8671562671661377, 10.940382957458496, 160.4227294921875)" data-uid="o_fa0km650i_12"/><path id="_WafwNEKYDu6ihmew9wMK4" d="M87.008 73.984c-0.564 0-1.108-0.236-1.508-0.688l-23.008-26.416c-0.728-0.832-0.636-2.084 0.196-2.82 0.836-0.732 2.092-0.636 2.82 0.204l23.008 26.416c0.728 0.832 0.636 2.092-0.196 2.82-0.384 0.324-0.848 0.484-1.312 0.484z" fill="#ffffff" transform="matrix(1.8671562671661377, 0, 0, 1.8671562671661377, 6.304329872131348, 160.6673583984375)" data-uid="o_fa0km650i_13"/><path id="_jNC-VE2NpzzYjjojIEPJd" d="M55.292 35.756c-1.052 0-1.928-0.816-1.996-1.884-0.072-1.092 0.764-2.052 1.872-2.116l35.424-2.232c1.232-0.152 2.060 0.768 2.124 1.872 0.072 1.1-0.772 2.060-1.88 2.12l-35.424 2.232c-0.036 0.008-0.080 0.008-0.12 0.008z" fill="#ffffff" transform="matrix(1.8671562671661377, 0, 0, 1.8671562671661377, 3.627044677734375, 164.7776336669922)" data-uid="o_fa0km650i_14"/><path id="_13tHl6q_e8MpI4hHrJ62p" d="M40 36.148c-0.392 0-0.772-0.108-1.108-0.34-0.916-0.616-1.164-1.86-0.552-2.772l20.252-30.148c0.612-0.916 1.872-1.152 2.764-0.548 0.916 0.616 1.164 1.86 0.556 2.772l-20.252 30.148c-0.388 0.58-1.020 0.888-1.66 0.888z" fill="#ffffff" transform="matrix(1.8671562671661377, 0, 0, 1.8671562671661377, 8.228992462158203, 165.71177673339844)" data-uid="o_fa0km650i_15"/><path id="_JEqjnA_VS9C9-c-IrHxjA" d="M32.32 46.816c-0.868 0-1.668-0.58-1.92-1.444l-9.792-33.9c-0.3-1.064 0.308-2.168 1.372-2.476 1.048-0.308 2.168 0.304 2.476 1.368l9.784 33.908c0.304 1.064-0.304 2.168-1.368 2.472-0.18 0.048-0.368 0.072-0.552 0.072z" fill="#ffffff" transform="matrix(1.8671562671661377, 0, 0, 1.8671562671661377, 8.177715301513672, 168.94680786132812)" data-uid="o_fa0km650i_16"/><path id="_bQVfZMh8hJnlB7K5E5A6A" d="M36.208 60.804c-0.244 0-0.488-0.044-0.732-0.136l-33.816-13.24c-1.028-0.412-1.536-1.572-1.132-2.592s1.552-1.54 2.588-1.132l33.82 13.248c1.028 0.404 1.536 1.564 1.132 2.584-0.312 0.788-1.064 1.268-1.86 1.268z" fill="#ffffff" transform="matrix(1.8671562671661377, 0, 0, 1.8671562671661377, 8.442461013793945, 165.60543823242188)" data-uid="o_fa0km650i_17"/></g></svg>