<svg xmlns="http://www.w3.org/2000/svg" width="512" height="512" viewBox="0 0 512 512" style="overflow: visible;" data-svgdocument="" id="_OKu5rQKxmEKX55j5Dh1Oy" class="fl-svgdocument" x="0" y="0" overflow="hidden" data-bbox="48 173.82342529296875 390.63936145150717 164.35315922468817"><path id="_mu5bQlKC4LKavwnprMYXc" fill="rgba(107,122,255,1)" transform="matrix(0.9297570586204529, 0, 0, 0.9297570586204529, 48, 173.82342529296875)" data-type="circle" data-cx="88.385" data-cy="88.385" data-r="88.385" d="M88.385,88.385m-88.385,0a88.385,88.385 0 1, 0 176.77,0a88.385,88.385 0 1, 0 -176.77,0" data-uid="o_fa14l6fh3_7"/><g id="_B-CDpa4F8O6aURBIQ_iGF" transform="matrix(0.8375704288482666, 0, 0, 0.8375704288482666, 47.99999237060547, 41.58203887939453)" fill="#ffffff" data-uid="o_fa14l6fh3_8"><path id="_-JEcpa4bFxx-G22s1NS0x" d="M48 4c24.256 0 44 19.744 44 44s-19.744 44-44 44-44-19.744-44-44 19.744-44 44-44zM48 0c-26.508 0-48 21.492-48 48s21.492 48 48 48 48-21.492 48-48-21.492-48-48-48v0z" fill="#ffffff" transform="matrix(1.8671562671661377, 0, 0, 1.8671562671661377, 8.235543251037598, 165.72377014160156)" data-uid="o_fa14l6fh3_9"/><path id="_tRqw_Ko7S-ms1wPVFNHqj" d="M48 66c-9.92 0-18-8.080-18-18s8.080-18 18-18 18 8.080 18 18-8.080 18-18 18zM48 34c-7.72 0-14 6.28-14 14s6.28 14 14 14 14-6.28 14-14-6.28-14-14-14z" fill="#ffffff" transform="matrix(1.8282570838928223, 0, 0, 1.8282570838928223, 10.008573532104492, 167.49728393554688)" data-uid="o_fa14l6fh3_10"/><path id="_0l5i70f76p9VpgC30kzlf" d="M15.348 82.436c-0.74 0-1.448-0.416-1.792-1.12-0.484-0.992-0.080-2.192 0.916-2.676l31.532-15.424c0.98-0.48 2.188-0.080 2.676 0.916 0.484 0.992 0.080 2.192-0.916 2.676l-31.532 15.416c-0.288 0.148-0.588 0.212-0.884 0.212z" fill="#ffffff" transform="matrix(1.8671562671661377, 0, 0, 1.8671562671661377, 14.513153076171875, 163.76806640625)" data-uid="o_fa14l6fh3_11"/><path id="_n0R81xrM-N5H-DDahq277" d="M53.172 95.632c-0.132 0-0.264-0.012-0.4-0.040-1.084-0.228-1.784-1.272-1.576-2.364l6.964-34.456c0.228-1.084 1.296-1.772 2.356-1.576 1.084 0.228 1.784 1.272 1.576 2.356l-6.964 34.464c-0.192 0.96-1.028 1.616-1.956 1.616z" fill="#ffffff" transform="matrix(1.8671562671661377, 0, 0, 1.8671562671661377, 10.940382957458496, 160.4227294921875)" data-uid="o_fa14l6fh3_12"/><path id="_WafwNEKYDu6ihmew9wMK4" d="M87.008 73.984c-0.564 0-1.108-0.236-1.508-0.688l-23.008-26.416c-0.728-0.832-0.636-2.084 0.196-2.82 0.836-0.732 2.092-0.636 2.82 0.204l23.008 26.416c0.728 0.832 0.636 2.092-0.196 2.82-0.384 0.324-0.848 0.484-1.312 0.484z" fill="#ffffff" transform="matrix(1.8671562671661377, 0, 0, 1.8671562671661377, 6.304329872131348, 160.6673583984375)" data-uid="o_fa14l6fh3_13"/><path id="_jNC-VE2NpzzYjjojIEPJd" d="M55.292 35.756c-1.052 0-1.928-0.816-1.996-1.884-0.072-1.092 0.764-2.052 1.872-2.116l35.424-2.232c1.232-0.152 2.060 0.768 2.124 1.872 0.072 1.1-0.772 2.060-1.88 2.12l-35.424 2.232c-0.036 0.008-0.080 0.008-0.12 0.008z" fill="#ffffff" transform="matrix(1.8671562671661377, 0, 0, 1.8671562671661377, 3.627044677734375, 164.7776336669922)" data-uid="o_fa14l6fh3_14"/><path id="_13tHl6q_e8MpI4hHrJ62p" d="M40 36.148c-0.392 0-0.772-0.108-1.108-0.34-0.916-0.616-1.164-1.86-0.552-2.772l20.252-30.148c0.612-0.916 1.872-1.152 2.764-0.548 0.916 0.616 1.164 1.86 0.556 2.772l-20.252 30.148c-0.388 0.58-1.020 0.888-1.66 0.888z" fill="#ffffff" transform="matrix(1.8671562671661377, 0, 0, 1.8671562671661377, 8.228992462158203, 165.71177673339844)" data-uid="o_fa14l6fh3_15"/><path id="_JEqjnA_VS9C9-c-IrHxjA" d="M32.32 46.816c-0.868 0-1.668-0.58-1.92-1.444l-9.792-33.9c-0.3-1.064 0.308-2.168 1.372-2.476 1.048-0.308 2.168 0.304 2.476 1.368l9.784 33.908c0.304 1.064-0.304 2.168-1.368 2.472-0.18 0.048-0.368 0.072-0.552 0.072z" fill="#ffffff" transform="matrix(1.8671562671661377, 0, 0, 1.8671562671661377, 8.177715301513672, 168.94680786132812)" data-uid="o_fa14l6fh3_16"/><path id="_bQVfZMh8hJnlB7K5E5A6A" d="M36.208 60.804c-0.244 0-0.488-0.044-0.732-0.136l-33.816-13.24c-1.028-0.412-1.536-1.572-1.132-2.592s1.552-1.54 2.588-1.132l33.82 13.248c1.028 0.404 1.536 1.564 1.132 2.584-0.312 0.788-1.064 1.268-1.86 1.268z" fill="#ffffff" transform="matrix(1.8671562671661377, 0, 0, 1.8671562671661377, 8.442461013793945, 165.60543823242188)" data-uid="o_fa14l6fh3_17"/></g><path id="_0KHCn5scc_qmTckV7Dcdw" fill="#ffffff" transform="matrix(0.6584527492523193, 0, 0, 0.6584527492523193, 221.65577740881042, 268.9188422370271)" text="AI Prompts" text-anchor="start" font-size="94" letter-spacing="0" side="left" offset="0" dx="0" dy="0" space="preserve" href="" font-family="Yellowtail" font-scale="contain" x="0" y="0" data-fl-textpath="" data-uid="o_fa14l6fh3_18" d="M 64.12-64.4L 64.12-64.4Q 65.54-67.56  66.14-67.56L 66.14-67.56L 66.37-67.56Q 67.06-67.56  69.17-66.09Q 71.28-64.63  71.28-63.34L 71.28-63.34Q 71.28-61.55  59.53-35.62Q 47.78-9.68  46.06-6.54Q 44.34-3.4  43.7-2.34Q 43.05-1.29  41.95 0L 41.95 0Q 39.98 2.43  37.04 2.43L 37.04 2.43Q 35.85 2.43  34.93 2.73Q 34.01 3.03  33.83 3.03L 33.83 3.03Q 32.36 3.03  32.36 2.34L 32.36 2.34Q 32.36 2.2  32.75 1.22Q 33.14 0.23  43.24-21.07L 43.24-21.07Q 32.45-21.48  24.28-21.71L 24.28-21.71Q 16.43-11.84  10.05-1.06L 10.05-1.06Q 9.27 0.46  8.58 1.08Q 7.89 1.7  6.7 1.7Q 5.51 1.7  4.13 0.48Q 2.75-0.73  2.75-2.34L 2.75-2.34Q 2.75-6.93  14.6-21.99L 14.6-21.99Q 9.04-21.99  7.55-21.71Q 6.06-21.43  5.65-21.43L 5.65-21.43Q 4.41-21.43  4.41-23.52Q 4.41-25.61  6.86-27.19Q 9.32-28.78  13.45-28.78L 13.45-28.78Q 13.77-28.78  14.6-28.82L 14.6-28.82Q 17.44-28.96  20.42-29.05L 20.42-29.05Q 30.43-40.8  41.35-50.86Q 52.28-60.91  60.26-64.95L 60.26-64.95Q 61.55-65.59  62.31-65.57Q 63.06-65.54  64.12-64.4ZM 60.91-57.92L 60.91-57.92Q 44.15-45.21  30.29-29.05L 30.29-29.05Q 38.42-28.87  46.72-28.37L 46.72-28.37Q 55.08-45.94  60.91-57.92ZM 98.406-66.69L 102.076-66.55L 104.236-66.64Q 105.426-66.64  105.426-65.73L 105.426-65.73Q 105.426-65.45  105.336-65.31L 105.336-65.31Q 83.396-33.05  64.346-2.07L 64.346-2.07Q 63.336-0.41  62.556-0.18L 62.556-0.18Q 62.516-0.18  62.096 0L 62.096 0Q 59.806 0.87  58.886 0.87Q 57.966 0.87  57.876 0.92L 57.876 0.92Q 57.466 1.38  56.896 1.38Q 56.316 1.38  56.136 1.35Q 55.946 1.33 55.076 0.99Q 54.206 0.64 54.206 0.46L 54.206 0.46Q 54.206-1.79 54.386-2.25L 54.386-2.25Q 55.356-5.51  64.996-20.63Q 74.636-35.75  84.616-50.14Q 94.596-64.53  96.706-66.19L 96.706-66.19Q 97.346-66.69  98.406-66.69L 98.406-66.69ZM 129.388-49.25L 129.388-49.25Q 127.868-48.15  127.868-46.79Q 127.868-45.44  129.888-45.44L 129.888-45.44Q 130.768-45.44  132.138-45.94L 132.138-45.94L 132.188-45.94Q 132.418-45.94  132.418-45Q 132.418-44.06  132.238-43.88L 132.238-43.88Q 127.508-40.53  124.248-40.53Q 120.988-40.53  119.518-42.36Q 118.048-44.2  118.048-47.16Q 118.048-50.12  121.308-53.45Q 124.568-56.78  130.078-59.6Q 135.588-62.42  143.728-64.26Q 151.878-66.09  162.048-66.09Q 172.208-66.09  179.048-62.12Q 185.888-58.15  185.888-53.08Q 185.888-48.01  182.328-42.78Q 178.778-37.54  173.428-33.67Q 168.078-29.79  161.558-27.31Q 155.048-24.83  149.908-24.83Q 144.768-24.83  141.918-28.96L 141.918-28.96Q 134.938-17.99  132.458-13.98Q 129.988-9.96  128.258-7.23Q 126.538-4.5  125.598-2.94Q 124.658-1.38  124.618-1.33L 124.618-1.33Q 123.648-0.28  122.548-0.28L 122.548-0.28L 120.298 0.14L 119.198 0.05L 118.418 0.05Q 115.708 0.05  115.708-1.65L 115.708-1.65Q 115.708-3.81  124.748-17.9Q 133.798-31.99  141.798-43.47Q 149.808-54.94  151.148-56.36Q 152.478-57.79  153.508-58.04Q 154.538-58.29  156.838-58.29L 156.838-58.29L 159.128-58.29Q 159.728-58.29  159.728-57.35Q 159.728-56.41  159.498-56.04L 159.498-56.04Q 155.458-50.4  144.898-33.74L 144.898-33.74Q 145.268-33  146.118-32.82Q 146.968-32.63  147.928-32.63L 147.928-32.63L 149.258-32.63Q 153.488-32.63  158.398-34.68Q 163.308-36.72  167.028-39.56Q 170.738-42.41  173.248-45.51Q 175.748-48.61  175.748-50.81Q 175.748-53.01  174.368-54.76Q 172.988-56.5  170.608-57.51L 170.608-57.51Q 165.918-59.48  159.248-59.48Q 152.568-59.48  143.138-56.02Q 133.698-52.55  129.388-49.25ZM 188.686-27.91L 186.756-25.01Q 197.596-37.32  205.216-37.32L 205.216-37.32Q 207.096-37.32  208.306-36.19Q 209.526-35.07  209.526-33.28Q 209.526-31.49  206.976-27.29Q 204.436-23.09  202.276-20.2L 202.276-20.2Q 201.126-18.73  199.676-18.73Q 198.236-18.73  197.436-19.78Q 196.626-20.84  196.626-22.26L 196.626-22.26Q 196.626-25.43  200.026-29.42L 200.026-29.42L 199.936-29.51Q 198.416-29.38  192.426-23.55Q 186.436-17.72  182.236-13.1Q 178.036-8.49  173.126-1.88L 173.126-1.88Q 171.706 0.09  170.716 0.09Q 169.736 0.09 168.106-0.53Q 166.476-1.15 166.126-1.42Q 165.786-1.7 165.786-2.34Q 165.786-2.98 166.156-3.83Q 166.516-4.68 167.506-6.24Q 168.496-7.8  170.486-11.29Q 172.486-14.78  176.706-21.85Q 180.936-28.92  181.756-30.38L 181.756-30.38Q 183.506-33.41  184.606-34.79L 184.606-34.79Q 186.666-37.41  191.576-37.41L 191.576-37.41Q 192.686-37.41  192.686-36.03L 192.686-36.03Q 192.686-33.87  188.686-27.91L 188.686-27.91ZM 235.734-34.97Q 237.114-34.97  238.554-33.74Q 240.004-32.5  240.004-29.95Q 240.004-27.4  238.214-23.34Q 236.424-19.28  233.304-15.08Q 230.184-10.88  226.444-7.18Q 222.704-3.49  218.364-1.12Q 214.024 1.24  210.494 1.24Q 206.954 1.24  204.824-0.99Q 202.684-3.21  202.684-7.18Q 202.684-11.15  204.634-15.97Q 206.594-20.79  209.664-24.49Q 212.744-28.18  216.324-31.12L 216.324-31.12Q 223.804-37.13  229.444-37.13L 229.444-37.13Q 231.974-37.13  233.254-35.89L 233.254-35.89Q 233.714-35.48  233.714-35.16L 233.714-35.16L 233.714-34.88Q 234.354-34.97  235.734-34.97ZM 231.104-28.87L 231.104-28.87L 230.774-28.87Q 229.174-28.87  229.174-31.21L 229.174-31.21Q 225.824-30.11  222.144-27.36Q 218.474-24.6  215.584-20.84L 215.584-20.84Q 209.714-13.31  209.614-8.12L 209.614-8.12Q 209.614-5.55  211.504-5.55Q 213.384-5.55  217.104-8.03Q 220.814-10.51  224.464-15.1Q 228.114-19.69  229.924-23.06Q 231.744-26.44  231.744-27.65Q 231.744-28.87  231.104-28.87ZM 238.997 0.28L 238.997 0.28L 236.747 0.18L 235.917 0.18Q 235.457 0.05 234.927-0.37Q 234.407-0.78 234.127-0.96Q 233.857-1.15 233.857-1.63Q 233.857-2.11 234.217-3.3L 234.217-3.3Q 243.167-23  251.527-34.79L 251.527-34.79Q 252.437-36.08  254.487-36.74Q 256.527-37.41  258.457-37.41L 258.457-37.41Q 259.597-37.41  259.597-35.62L 259.597-35.62Q 259.597-35.11  259.237-34.26Q 258.867-33.41  257.397-31.49Q 255.927-29.56  253.907-27.08Q 251.887-24.6  251.617-24.23L 251.617-24.23Q 257.907-30.75  262.977-33.94Q 268.047-37.13  270.317-37.13Q 272.587-37.13  273.807-35.82Q 275.027-34.52  275.027-33.02Q 275.027-31.53  274.817-30.55Q 274.607-29.56  274.057-28.48Q 273.507-27.4  273.117-26.64Q 272.727-25.89  271.807-24.67Q 270.897-23.45  270.547-23Q 270.207-22.54  269.127-21.25Q 268.047-19.97  267.957-19.83L 267.957-19.83Q 269.237-21.11  271.537-23.64Q 273.827-26.16  275.417-27.86Q 276.997-29.56  279.387-31.69Q 281.767-33.83  283.837-35.16L 283.837-35.16Q 288.797-38.28  293.887-38.28L 293.887-38.28Q 295.627-38.28  296.827-37.18Q 298.017-36.08  298.017-34.54Q 298.017-33  294.297-27.19Q 290.587-21.39  286.887-15.54Q 283.197-9.68  283.197-8.17L 283.197-8.17Q 283.197-6.06  283.977-5.67Q 284.757-5.28  285.857-5.37Q 286.957-5.46  288.957-6.79Q 290.947-8.12  292.507-9.55L 292.507-9.55Q 295.037-11.84  297.187-14L 297.187-14Q 297.647-14.41  298.197-14.41L 298.197-14.41Q 299.077-14.41  299.257-13.08Q 299.437-11.75  299.437-10.33Q 299.437-8.9  299.167-8.35L 299.167-8.35Q 297.837-5.78  293.287-2.07Q 288.747 1.65  284.567 1.65L 284.567 1.65Q 284.067 1.65  283.837 1.61L 283.837 1.61Q 279.107 1.15  277.297-0.99Q 275.477-3.12  275.477-6.06Q 275.477-9  277.477-13.17Q 279.477-17.35  281.857-20.75Q 284.247-24.14  286.247-26.87Q 288.237-29.6  288.237-29.83Q 288.237-30.06  287.877-30.06L 287.877-30.06Q 286.447-30.06  281.537-25.47L 281.537-25.47Q 273.137-17.63  267.037-10.33L 267.037-10.33Q 265.427-8.4  259.417-0.55L 259.417-0.55Q 258.727 0.37  257.237 0.37Q 255.747 0.37  254.137-0.21Q 252.537-0.78  252.537-1.7L 252.537-1.7Q 252.537-2.16  259.827-14.57Q 267.127-26.99  267.127-28.11Q 267.127-29.24  265.777-29.24Q 264.417-29.24  260.197-25.2L 260.197-25.2Q 248.587-14.09  242.207-3.12L 242.207-3.12Q 241.797-2.48  240.597-1.1Q 239.407 0.28  238.997 0.28ZM 320.827-48.88L 321.707-48.84L 322.527-48.93Q 323.217-48.93  323.627-47.73Q 324.047-46.54  324.047-46.13Q 324.047-45.71  323.127-44.57L 323.127-44.57L 310.047-24.65Q 316.927-31.53  324.047-34.7L 324.047-34.7Q 326.797-35.89  329.027-35.89Q 331.247-35.89  332.607-34.45Q 333.957-33  333.957-30.84Q 333.957-28.69  332.767-25.52Q 331.567-22.35  329.527-18.77Q 327.487-15.19  324.567-11.57Q 321.657-7.94  318.467-5Q 315.277-2.07  311.517-0.23Q 307.747 1.61  304.907 1.61L 304.907 1.61Q 299.167 1.61  299.167-3.67L 299.167-3.67Q 293.797 4.54 286.777 15.79Q 279.747 27.03 279.247 27.68Q 278.737 28.32 278.397 28.32Q 278.057 28.32 277.337 27.91Q 276.627 27.49 275.847 26.53Q 275.067 25.57 275.047 23.73Q 275.027 21.89 276.127 20.01L 276.127 20.01Q 282.317 9.68  300.017-18.84Q 317.707-47.37  319.177-48.33L 319.177-48.33Q 320.007-48.88  320.827-48.88L 320.827-48.88ZM 325.737-27.72L 325.737-27.72Q 325.737-28.69  324.827-28.69L 324.827-28.69Q 322.347-28.69  314.337-21.07Q 306.327-13.45  301.597-7.16L 301.597-7.16Q 302.797-5.69  305.137-5.69Q 307.477-5.69  311.187-8.22Q 314.907-10.74  318.077-14.21Q 321.247-17.67  323.497-21.48Q 325.737-25.29  325.737-27.72ZM 362.372-58.84L 364.522-59.12L 366.412-58.66Q 366.822-58.66  367.142-58.25Q 367.462-57.83  367.462-57.46Q 367.462-57.1  366.502-55.49Q 365.532-53.88  364.232-51.84Q 362.922-49.8  362.832-49.62L 362.832-49.62Q 366.412-49.89  367.902-49.89Q 369.392-49.89  369.942-49.69Q 370.492-49.48  371.202-48.54Q 371.912-47.6  372.512-47.11Q 373.112-46.63  373.112-45.67Q 373.112-44.71  371.942-44.04Q 370.772-43.37  369.432-43.24L 369.432-43.24Q 358.792-42.18  357.682-42.13L 357.682-42.13Q 353.972-36.44  347.292-24.4Q 340.612-12.35  340.202-9.32L 340.202-9.32Q 340.012-7.94  340.012-7.07L 340.012-7.07Q 340.012-5.28  341.902-5.28Q 343.782-5.28  346.072-6.72Q 348.372-8.17  350.302-9.87L 350.302-9.87Q 355.442-14.46  355.802-14.46L 355.802-14.46Q 357.002-14.46  357.002-10.33L 357.002-10.33Q 357.002-8.08  354.932-6.29L 354.932-6.29Q 350.302-2.29  347.132-0.28Q 343.962 1.74  340.792 1.74L 340.792 1.74Q 340.112 1.74  339.512 1.61L 339.512 1.61Q 335.842 0.92  334.122-1.08Q 332.392-3.08  332.422-6.47Q 332.442-9.87  334.442-14.71Q 336.432-19.55  339.462-25.01L 339.462-25.01Q 344.422-33.92  349.382-41.72L 349.382-41.72L 347.632-41.49Q 342.312-40.9  341.442-40.9L 341.442-40.9L 341.022-40.9Q 339.692-40.9  338.452-41.42Q 337.212-41.95  337.212-42.73Q 337.212-43.51  337.882-44.25Q 338.552-44.98  338.682-45.39L 338.682-45.39Q 339.002-46.4  341.092-47.64Q 343.182-48.88  344.242-48.95Q 345.292-49.02  346.282-49.07Q 347.272-49.11  348.482-49.16Q 349.702-49.2  350.342-49.25L 350.342-49.25L 354.472-49.43Q 358.332-55.22  359.772-56.87Q 361.222-58.52  361.452-58.68Q 361.682-58.84  362.372-58.84L 362.372-58.84ZM 358.187-9.18L 358.187-9.18L 358.147-8.45Q 358.147-7.3  359.017-6.47Q 359.887-5.65  360.627-5.65L 360.627-5.65Q 366.127-5.65  370.377-7.3Q 374.627-8.95  374.627-10.6L 374.627-10.6Q 374.627-11.38  373.087-11.96Q 371.547-12.53  367.897-13.38Q 364.247-14.23  362.597-14.71Q 360.947-15.19  359.977-15.61Q 359.017-16.02  358.007-16.75L 358.007-16.75Q 355.847-18.27  355.847-21.27Q 355.847-24.28  358.077-27.24Q 360.307-30.2  363.657-32.31Q 367.007-34.42  370.857-36.03L 370.857-36.03Q 378.477-39.2  383.667-39.2L 383.667-39.2Q 388.757-39.2  389.957-36.99L 389.957-36.99Q 390.317-36.21  390.317-35.25L 390.317-35.25L 390.317-34.93Q 390.317-32.5  389.287-31.12Q 388.257-29.74  386.027-28.64Q 383.807-27.54  382.497-27.54Q 381.187-27.54  380.847-27.72Q 380.497-27.91  380.267-28.2Q 380.037-28.5  379.697-28.64Q 379.347-28.78  379.347-29.33Q 379.347-29.88  379.807-30.45Q 380.267-31.03  380.457-31.67L 380.457-31.67Q 377.427-31.53  374.117-30.27Q 370.817-29.01  368.447-27.45Q 366.087-25.89  364.527-24.46Q 362.967-23.04  362.967-22.38Q 362.967-21.71  365.077-21.3L 365.077-21.3Q 374.577-19.42  377.557-18.04Q 380.547-16.66  381.687-14.92Q 382.837-13.17  382.837-11.75L 382.837-11.75Q 382.837-8.81  380.497-6.2Q 378.157-3.58  374.717-1.93L 374.717-1.93Q 367.327 1.7  361.837 1.7Q 356.357 1.7  354.267 0.02Q 352.177-1.65  352.177-3.95Q 352.177-6.24  353.347-8.19Q 354.517-10.14  356.357-10.14Q 358.187-10.14  358.187-9.18Z" font-style="normal" font-weight="400"/></svg>